<svg width="24" height="24" viewBox="0 0 24 24" fill="none" xmlns="http://www.w3.org/2000/svg">
<path d="M11.9664 7.952L9.71237 13.296H14.2674L11.9984 7.952H11.9664Z" fill="#212121"/>
<path fill-rule="evenodd" clip-rule="evenodd" d="M9 22.75H15C20.43 22.75 22.75 20.43 22.75 15V9C22.75 3.57 20.43 1.25 15 1.25H9C3.57 1.25 1.25 3.57 1.25 9V15C1.25 20.43 3.57 22.75 9 22.75ZM6.8304 17.36C6.9584 17.456 7.12907 17.504 7.3424 17.504C7.55573 17.504 7.7264 17.4507 7.8544 17.344C7.9824 17.2267 8.09973 17.04 8.2064 16.784L9.11959 14.64H14.832L15.7584 16.784C15.8651 17.0293 15.9877 17.2107 16.1264 17.328C16.2651 17.4453 16.4517 17.504 16.6864 17.504C16.8997 17.504 17.0651 17.4613 17.1824 17.376C17.2997 17.28 17.3691 17.152 17.3904 16.992C17.4117 16.8213 17.3744 16.6347 17.2784 16.432L12.9424 6.704C12.8357 6.448 12.6971 6.26667 12.5264 6.16C12.3664 6.05333 12.1904 6 11.9984 6C11.7957 6 11.6091 6.05333 11.4384 6.16C11.2784 6.26667 11.1451 6.448 11.0384 6.704L6.7024 16.432C6.61707 16.6347 6.58507 16.816 6.6064 16.976C6.62773 17.136 6.7024 17.264 6.8304 17.36ZM11.9984 7.952H11.9664L9.71237 13.296H14.2674L11.9984 7.952Z" fill="#212121"/>
</svg>
