<svg width="24" height="24" viewBox="0 0 24 24" fill="none" xmlns="http://www.w3.org/2000/svg">
<path d="M15 22.75H9C3.57 22.75 1.25 20.43 1.25 15V9C1.25 3.57 3.57 1.25 9 1.25H15C20.43 1.25 22.75 3.57 22.75 9V15C22.75 20.43 20.43 22.75 15 22.75ZM9 2.75C4.39 2.75 2.75 4.39 2.75 9V15C2.75 19.61 4.39 21.25 9 21.25H15C19.61 21.25 21.25 19.61 21.25 15V9C21.25 4.39 19.61 2.75 15 2.75H9Z" fill="#212121"/>
<path d="M7.34238 17.504C7.12904 17.504 6.95838 17.456 6.83038 17.36C6.70238 17.264 6.62771 17.136 6.60638 16.976C6.58504 16.816 6.61704 16.6347 6.70238 16.432L11.0384 6.704C11.145 6.448 11.2784 6.26667 11.4384 6.16C11.609 6.05333 11.7957 6 11.9984 6C12.1904 6 12.3664 6.05333 12.5264 6.16C12.697 6.26667 12.8357 6.448 12.9424 6.704L17.2784 16.432C17.3744 16.6347 17.4117 16.8213 17.3904 16.992C17.369 17.152 17.2997 17.28 17.1824 17.376C17.065 17.4613 16.8997 17.504 16.6864 17.504C16.4517 17.504 16.265 17.4453 16.1264 17.328C15.9877 17.2107 15.865 17.0293 15.7584 16.784L14.6384 14.192L15.3904 14.64H8.57438L9.31038 14.192L8.20638 16.784C8.09971 17.04 7.98238 17.2267 7.85438 17.344C7.72638 17.4507 7.55571 17.504 7.34238 17.504ZM11.9664 7.952L9.55038 13.68L9.15038 13.296H14.7984L14.4304 13.68L11.9984 7.952H11.9664Z" fill="#212121"/>
</svg>
