<svg width="184" height="184" viewBox="0 0 184 184" fill="none" xmlns="http://www.w3.org/2000/svg">
<g filter="url(#filter0_d_4120_9329)">
<rect x="12" y="8" width="160" height="160" rx="32" fill="white"/>
<path fill-rule="evenodd" clip-rule="evenodd" d="M123.982 62.2993C128.134 58.5676 132.28 56.5713 136.268 56.5713C137.395 56.5713 138.411 56.7355 139.183 57.1507C140.016 57.5984 140.572 58.3548 140.572 59.3521C140.572 60.82 139.347 61.7077 137.823 62.3258C136.225 62.9742 133.775 63.5472 130.3 64.1409C130.298 64.1411 130.297 64.1414 130.295 64.1416L125.525 64.996C121.15 68.8581 116.615 76.093 108.338 92.9536C103.521 102.767 99.7118 108.213 94.5131 112.085C96.6294 113.618 98.8165 114.425 100.448 114.425C103.355 114.425 106.125 112.794 109.984 108.107L110.666 107.279L112.915 109.207L112.247 109.989C107.793 115.2 104.557 117.405 100.448 117.405C97.7453 117.405 94.7014 116.031 91.8723 113.785C89.2936 115.183 86.4373 116.009 83.3705 116.009C81.5082 116.009 79.8088 115.552 78.5421 114.706C77.2641 113.853 76.3891 112.565 76.3891 110.995C76.3891 107.862 79.4739 105.911 82.9364 105.911C86.3083 105.911 88.7798 107.151 92.2164 110.168C96.3482 107.254 100.219 102.258 104.586 93.7943C103.123 93.7154 102.11 93.6768 101.099 93.6768C96.6308 93.6768 91.5102 93.8082 88.2535 94.3018C80.0838 103.575 73.8543 109.822 68.5402 113.761C63.1463 117.758 58.6252 119.428 53.9188 119.428C51.6469 119.428 49.7098 118.752 48.3393 117.398C46.9687 116.045 46.2861 114.134 46.2861 111.902C46.2861 108.635 47.6827 104.939 49.8601 101.295C52.0494 97.6313 55.0863 93.9237 58.5041 90.6098C61.922 87.2958 65.7472 84.3502 69.5295 82.2268C73.2932 80.1139 77.1059 78.7637 80.476 78.7637C81.7614 78.7637 82.9198 79.0834 83.7726 79.8076C84.6471 80.5502 85.0694 81.6077 85.0694 82.8007C85.0694 84.4553 84.2187 86.5252 82.9278 88.6327C82.1237 89.9454 81.1151 91.3269 79.9455 92.7077C81.9093 92.2702 84.181 91.863 86.6727 91.5266C104.058 71.6428 113.061 64.4591 123.982 62.2993ZM89.5527 111.744C86.9628 109.596 85.2024 108.891 82.9364 108.891C81.8028 108.891 80.9055 109.18 80.3222 109.589C79.7528 109.989 79.4975 110.48 79.4975 110.995C79.4975 111.41 79.7392 111.887 80.4124 112.309C81.0876 112.732 82.1126 113.029 83.3705 113.029C85.5712 113.029 87.6285 112.601 89.5527 111.744ZM106.038 90.86C112.262 78.1701 116.311 71.075 120.198 66.3843C112.401 69.2559 104.624 75.841 91.0991 91.0829C94.4867 90.8248 98.6891 90.6974 102.257 90.6974C103.305 90.6974 104.457 90.7526 106.038 90.86ZM83.6439 94.9457C81.0152 95.4055 78.3667 96.0046 76.1489 96.6402C74.8751 97.7616 73.7593 98.6605 72.7629 99.2892C71.7334 99.9387 70.7142 100.376 69.6939 100.376C69.2466 100.376 68.789 100.229 68.4379 99.8902C68.0845 99.5494 67.9227 99.0952 67.9227 98.6425C67.9227 97.6421 68.6827 96.8134 69.6649 96.1663C70.6689 95.5049 72.1765 94.8467 74.3109 94.224C76.5548 92.2283 78.4721 89.9721 79.8312 87.8913C81.2589 85.7055 81.9611 83.8798 81.9611 82.8007C81.9611 82.2763 81.8151 82.0958 81.7075 82.0098C81.5538 81.8868 81.207 81.7432 80.476 81.7432C77.8114 81.7432 74.5271 82.8778 71.0334 84.8695C67.5615 86.8488 63.981 89.6182 60.7488 92.7525C57.5165 95.8869 54.6592 99.3604 52.6172 102.732C50.5616 106.126 49.3945 109.314 49.3945 111.902C49.3945 113.54 49.8335 114.637 50.5214 115.326C51.2073 116.013 52.2948 116.449 53.9188 116.449C57.8943 116.449 61.8394 115.05 66.7857 111.379C71.3484 107.992 76.7015 102.718 83.6439 94.9457ZM72.1891 97.1716C71.6156 97.4237 71.1681 97.6659 70.8265 97.8909C70.6905 97.9805 70.5773 98.0632 70.4832 98.1384C70.8025 98.0194 71.182 97.8286 71.6361 97.5422C71.8132 97.4304 71.9973 97.3069 72.1891 97.1716ZM130.775 61.1178C133.028 60.6787 134.755 60.2695 135.951 59.8707C136.274 59.7631 136.544 59.6607 136.767 59.5649C136.62 59.5559 136.454 59.5507 136.268 59.5507C134.643 59.5507 132.766 60.0755 130.775 61.1178Z" fill="#141414"/>
</g>
<defs>
<filter id="filter0_d_4120_9329" x="0" y="0" width="184" height="184" filterUnits="userSpaceOnUse" color-interpolation-filters="sRGB">
<feFlood flood-opacity="0" result="BackgroundImageFix"/>
<feColorMatrix in="SourceAlpha" type="matrix" values="0 0 0 0 0 0 0 0 0 0 0 0 0 0 0 0 0 0 127 0" result="hardAlpha"/>
<feOffset dy="4"/>
<feGaussianBlur stdDeviation="6"/>
<feColorMatrix type="matrix" values="0 0 0 0 0.235294 0 0 0 0 0.235294 0 0 0 0 0.235294 0 0 0 0.1 0"/>
<feBlend mode="normal" in2="BackgroundImageFix" result="effect1_dropShadow_4120_9329"/>
<feBlend mode="normal" in="SourceGraphic" in2="effect1_dropShadow_4120_9329" result="shape"/>
</filter>
</defs>
</svg>
