<svg width="104" height="68" viewBox="0 0 104 68" fill="none" xmlns="http://www.w3.org/2000/svg">
<path d="M11.596 33.0616C15.132 32.9522 19.8314 32.7336 22.0165 32.6243L22.0193 32.6241L25.951 32.4056L26.268 32.388L26.3869 32.0936L27.1494 30.2047C27.5831 29.1933 28.959 26.2591 30.2302 23.6794C30.2304 23.6791 30.2305 23.6788 30.2307 23.6785L32.56 18.9818L32.6212 18.8585L32.6106 18.7213L32.3561 15.412C32.3561 15.4112 32.356 15.4104 32.356 15.4096C32.2493 13.8235 32.3202 11.2482 32.4924 8.93201C32.5784 7.77592 32.6888 6.69476 32.8128 5.84365C32.8749 5.41758 32.9394 5.05576 33.0044 4.77403C33.034 4.6461 33.0617 4.54361 33.0863 4.46372C33.2971 4.58513 33.6111 4.83051 34.04 5.23467C34.958 6.09979 36.2794 7.57264 38.0249 9.68254C38.8829 10.7234 39.5652 11.4829 40.0924 11.9672C40.3542 12.2077 40.5983 12.3995 40.8222 12.5219C41.0241 12.6322 41.323 12.7489 41.6311 12.6407C41.965 12.5294 43.1663 12.1286 44.2998 11.6899C48.5952 10.1645 53.4843 9.97642 59.4981 11.2012L59.5028 11.2022L60.6314 11.4207L61.0052 11.4931L61.1744 11.1519L63.3951 6.67249L63.397 6.66857C64.5815 4.22592 65.4056 2.66118 66.0038 1.7548C66.2982 1.30866 66.5113 1.06413 66.6573 0.948097C66.7187 1.08254 66.7933 1.28072 66.8796 1.54517C67.0541 2.07982 67.2611 2.83828 67.4897 3.77809C67.9463 5.65468 68.4812 8.22077 69.008 11.0916C69.0081 11.092 69.0081 11.0924 69.0082 11.0928L69.6993 15.0223L69.7275 15.1829L69.8449 15.2959L72.7573 18.1001L72.7608 18.1035C75.9506 21.115 78.747 25.2061 80.2477 28.9946C80.2478 28.9947 80.2478 28.9949 80.2479 28.995L81.23 31.5058L81.3635 31.847L81.729 31.8226L85.0054 31.6041L85.012 31.6036C85.5705 31.5589 86.1891 31.5106 86.812 31.462C86.8346 31.4603 86.8571 31.4585 86.8797 31.4568C85.7719 31.5481 84.7369 31.6365 84.1198 31.7004L84.1139 31.701L84.055 31.7078C83.6154 31.7585 83.2592 31.7996 82.986 31.8459C82.718 31.8912 82.4444 31.953 82.2368 32.0887C82.1195 32.1653 82.0144 32.2704 81.9434 32.4118C81.8744 32.5496 81.8543 32.6891 81.8538 32.8102C81.8529 33.0267 81.9181 33.2729 81.9771 33.4919C82.0019 33.585 82.0265 33.6794 82.0504 33.7712C82.0936 33.9366 82.1345 34.0936 82.1705 34.2197C82.1987 34.3183 82.229 34.4169 82.2609 34.4981C82.2764 34.5377 82.2982 34.5886 82.3273 34.6383L82.3283 34.6401C82.3443 34.6675 82.4062 34.7737 82.53 34.8477C82.5717 34.8731 82.6039 34.8847 82.6093 34.8868C82.6368 34.8975 82.6601 34.9039 82.6722 34.907C82.6979 34.9137 82.7213 34.9179 82.7359 34.9203C82.7674 34.9256 82.804 34.9303 82.8405 34.9345C82.9154 34.943 83.0185 34.9526 83.1435 34.963C83.3951 34.9839 83.7514 35.0092 84.1852 35.0366C85.0533 35.0914 86.2397 35.1553 87.5349 35.2101C89.3394 35.2949 90.6344 35.3671 91.5593 35.4459C90.7809 35.4336 89.7815 35.3982 88.527 35.3401L101.123 1.05783C103.654 0.15612 107.224 0.368683 109.537 1.54242C114.889 4.27219 116.934 9.99375 114.451 14.928C113.542 16.7119 111.89 18.2058 110.126 19.0709C108.345 19.9445 106.575 20.1207 105.378 19.4851C105.28 19.4308 105.105 19.2671 104.882 18.9607C104.669 18.6687 104.447 18.2962 104.245 17.8932C103.831 17.0699 103.546 16.2177 103.529 15.7291C103.531 15.1047 103.778 14.6045 104.268 14.2171C104.777 13.8138 105.576 13.515 106.687 13.3934L106.69 13.3931C108.019 13.2412 109.226 12.8597 110.135 12.326C111.022 11.8054 111.725 11.076 111.826 10.1887C111.878 9.77222 111.757 9.34251 111.561 8.94656C111.361 8.5434 111.063 8.13303 110.702 7.73827C109.98 6.94875 108.967 6.1759 107.843 5.60446C105.903 4.61428 103.118 4.7631 101.354 6.04401C100.979 6.30973 100.551 6.78846 100.157 7.31697C99.7543 7.85742 99.3561 8.49245 99.0505 9.10387L99.0484 9.10804C98.2363 10.7716 97.8771 12.7629 97.9604 15.6331C98.0435 18.4965 98.5685 22.2702 99.5523 27.5188C101.444 37.6715 101.801 40.6576 101.801 45.8544C101.801 51.4407 100.683 55.6331 98.4481 58.5905C96.2222 61.536 92.8348 63.3269 88.1406 64.0054L88.1365 64.006C87.3658 64.1239 86.7686 64.2164 86.3087 64.3045C85.8551 64.3913 85.4964 64.4805 85.2199 64.6031C84.9236 64.7345 84.7018 64.913 84.5491 65.1766C84.4141 65.4098 84.3535 65.6808 84.3012 65.9251L84.3 65.9304C83.808 68.3575 81.9934 70.6908 78.9611 72.7592C75.9344 74.8238 71.7436 76.5888 66.6109 77.8906C60.9851 79.2975 57.2824 79.659 50.0748 79.4416L50.0739 79.4416C44.951 79.2962 42.9207 79.0787 40.5379 78.4741M11.596 33.0616C11.5961 33.0616 11.5963 33.0616 11.5965 33.0616L11.5797 32.5619L11.5952 33.0617C11.5954 33.0617 11.5957 33.0616 11.596 33.0616ZM11.596 33.0616C9.71321 33.1248 8.36832 33.1834 7.41504 33.2502M7.41504 33.2502C7.42481 33.2502 7.43462 33.2501 7.44448 33.25C9.52474 33.2365 13.4428 33.0643 20.8012 32.7181L20.7993 32.7182L20.8266 33.2174M7.41504 33.2502C6.9925 33.2798 6.6469 33.3111 6.36551 33.3451C5.89869 33.4015 5.65834 33.4605 5.54463 33.5087C5.5185 33.5198 5.50862 33.5265 5.50882 33.5263C5.50904 33.5262 5.52036 33.5186 5.53563 33.5007C5.57705 33.4523 5.59962 33.3857 5.59962 33.3267C5.59962 33.3169 5.59292 33.2286 5.51867 33.1572C5.50074 33.14 5.48792 33.1331 5.48801 33.1329C5.48813 33.1327 5.51584 33.1469 5.59548 33.1643C5.85573 33.2212 6.38069 33.2563 7.41504 33.2502ZM20.8266 33.2174L20.8031 32.718L25.4591 32.4632L26.1862 32.4235L25.9621 33.1164L25.5617 34.3546L25.5586 34.3641L25.5551 34.3735C25.4275 34.72 25.2966 35.0666 25.1777 35.3471C25.1185 35.487 25.0591 35.6179 25.002 35.7275C24.9546 35.8184 24.8855 35.9417 24.7953 36.036M20.8266 33.2174L24.9514 32.9918L20.8266 33.2174ZM24.7953 36.036C24.7508 36.0838 24.7077 36.1121 24.6884 36.1242C24.6572 36.1439 24.6287 36.1575 24.6096 36.166C24.5712 36.1831 24.5327 36.1962 24.5024 36.2056C24.4396 36.2252 24.3624 36.2446 24.2783 36.2638C24.1074 36.3028 23.8698 36.3494 23.5775 36.4021C22.9908 36.508 22.1597 36.6431 21.148 36.7981C19.1237 37.1082 16.3632 37.5001 13.3582 37.9009M24.7953 36.036C24.8072 36.0233 24.8191 36.0093 24.8307 35.9938L24.4307 35.6938L24.7843 36.0473C24.788 36.0436 24.7917 36.0398 24.7953 36.036ZM13.3582 37.9009C12.6697 37.9951 12.017 38.0844 11.3982 38.169C5.7915 38.9358 2.97039 39.3216 1.54909 39.5816C1.23731 39.6386 1.00116 39.6882 0.822255 39.7326M13.3582 37.9009C13.3583 37.9009 13.3585 37.9009 13.3586 37.9008L13.2907 37.4055L13.3568 37.9011C13.3573 37.901 13.3578 37.9009 13.3582 37.9009ZM0.822255 39.7326C0.905127 39.7207 0.999332 39.7043 1.1062 39.6829L1.11326 39.6815L1.12036 39.6803C2.84323 39.3869 8.50632 38.6117 13.7403 37.9294C16.36 37.5878 18.8772 37.2689 20.7471 37.0445C21.6815 36.9323 22.4566 36.8434 23.0026 36.787C23.2747 36.759 23.4944 36.7385 23.6498 36.7274C23.7261 36.7219 23.795 36.7181 23.8496 36.7174C23.875 36.7171 23.9107 36.7172 23.9476 36.7206C23.9643 36.7221 23.9989 36.7257 24.0397 36.7363C24.0601 36.7415 24.0958 36.7519 24.137 36.7719C24.1661 36.786 24.2258 36.818 24.284 36.8795M0.822255 39.7326C0.738053 39.7448 0.665552 39.7524 0.603352 39.756C0.562368 39.7584 0.52863 39.7589 0.501191 39.7583C0.500806 39.7449 0.500453 39.7337 0.500256 39.7274L0.500092 39.7221C0.499889 39.7104 0.500132 39.7056 0.50012 39.7056C0.500104 39.7056 0.499707 39.7128 0.497645 39.7236C0.495712 39.7338 0.492707 39.7454 0.488347 39.758C0.438789 39.7562 0.412596 39.7508 0.402804 39.748C0.402284 39.7478 0.402406 39.7479 0.403083 39.7482C0.407782 39.7502 0.439248 39.7638 0.469035 39.801C0.465115 39.808 0.460755 39.8151 0.455919 39.8221C0.449571 39.8314 0.44339 39.8391 0.437804 39.8455C0.423375 39.8618 0.412915 39.8688 0.413804 39.8682C0.419035 39.8646 0.432482 39.8569 0.458494 39.8455C0.467442 39.8415 0.477877 39.8372 0.489977 39.8324C0.492527 39.8371 0.494645 39.8415 0.49639 39.8455C0.502782 39.86 0.504234 39.869 0.504187 39.8691C0.504145 39.8691 0.502924 39.8621 0.502924 39.8455C0.502924 39.8402 0.502868 39.8341 0.502778 39.8275C0.546046 39.811 0.607721 39.7904 0.693981 39.7663C0.733083 39.7554 0.775733 39.7442 0.822255 39.7326ZM24.284 36.8795C24.3944 36.9954 24.4282 37.1294 24.4409 37.1934C24.4564 37.272 24.4592 37.3493 24.4581 37.4133C24.456 37.5428 24.4365 37.6903 24.4103 37.8362C24.3572 38.1326 24.2636 38.4925 24.1576 38.8364C24.0517 39.1804 23.9279 39.5258 23.8098 39.7921C23.7519 39.9226 23.6879 40.0514 23.6202 40.1548C23.5875 40.2049 23.5412 40.2688 23.4809 40.3258C23.4366 40.3677 23.2976 40.4911 23.0837 40.4911C23.0868 40.4911 23.037 40.4945 22.8969 40.5127C22.7726 40.5289 22.6041 40.5531 22.3962 40.5844C21.981 40.6468 21.4176 40.7365 20.7554 40.8448C19.4314 41.0612 17.7186 41.3512 16.0198 41.6446C14.6093 41.8883 13.2096 42.1342 12.0512 42.3424M24.284 36.8795C24.281 36.8763 24.2778 36.8731 24.2746 36.8699L23.921 37.2234L24.321 36.9234C24.309 36.9074 24.2965 36.8928 24.284 36.8795ZM12.0512 42.3424C13.08 42.2015 14.423 41.9843 16.1158 41.6839L16.1168 41.6837C17.8858 41.3736 19.5194 41.1088 20.7213 40.9305C21.3217 40.8414 21.8178 40.7734 22.1706 40.7321C22.3458 40.7116 22.4924 40.6969 22.6009 40.6899C22.6535 40.6865 22.7084 40.6841 22.7574 40.6853C22.7804 40.6858 22.8171 40.6875 22.8578 40.6941C22.878 40.6974 22.912 40.704 22.9517 40.7178C22.9827 40.7286 23.067 40.7604 23.146 40.8394C23.2217 40.9151 23.2549 40.9956 23.2686 41.0334C23.2844 41.0771 23.2921 41.1157 23.2962 41.141C23.3045 41.1916 23.3062 41.2395 23.3064 41.2742C23.307 41.3466 23.3013 41.4312 23.293 41.5179C23.2762 41.6949 23.2436 41.9321 23.1998 42.2088C23.1118 42.7649 22.9738 43.5101 22.809 44.3157L22.8092 44.3158L22.8061 44.3292C22.3109 46.4524 22.1639 48.6948 22.1639 53.8299C22.1639 57.0257 22.1827 58.7164 22.3158 59.9633C22.4463 61.1865 22.6866 61.9819 23.1576 63.3953C23.6516 64.878 24.5788 66.7553 25.6048 68.4524C26.6375 70.1604 27.7321 71.6224 28.5416 72.3141L28.5439 72.3161C31.975 75.2836 35.654 77.1805 40.5379 78.4741M12.0512 42.3424C11.8143 42.3849 11.5875 42.4259 11.3728 42.465C10.7401 42.5801 10.2138 42.6782 9.8432 42.7507C9.69136 42.7805 9.5678 42.8055 9.47466 42.8253C9.45379 42.8298 9.43444 42.834 9.41665 42.8379C9.36721 42.8488 9.33516 42.8566 9.31736 42.8613C9.3075 42.8639 9.30938 42.8637 9.31767 42.8609C9.31986 42.8601 9.32585 42.858 9.33439 42.8546C9.33982 42.8524 9.34629 42.8497 9.35346 42.8464L9.3537 42.8463C9.35846 42.8443 9.42804 42.8144 9.49419 42.7482C9.52589 42.7165 9.55259 42.6774 9.57103 42.6332C9.58917 42.5898 9.59604 42.5494 9.59744 42.5171C9.60005 42.4571 9.5842 42.4245 9.58652 42.43C9.58764 42.4326 9.59593 42.4499 9.61896 42.4809C9.62927 42.4948 9.64147 42.5101 9.65564 42.5264C9.7071 42.5341 9.78794 42.5406 9.90582 42.5417C10.1769 42.5443 10.5781 42.5184 11.129 42.4576C11.4026 42.4275 11.7096 42.3891 12.0512 42.3424ZM40.5379 78.4741C40.5371 78.4739 40.5363 78.4737 40.5354 78.4734L40.4124 78.9581M40.5379 78.4741C40.5388 78.4743 40.5396 78.4745 40.5404 78.4747L40.4124 78.9581M40.4124 78.9581C35.4614 77.647 31.7117 75.7169 28.2168 72.6942L50.0598 79.9414C44.9267 79.7957 42.8516 79.5772 40.4124 78.9581ZM83.1391 35.0851L88.5265 35.34L86.1007 57.071C86.0279 56.9618 85.773 54.7403 85.591 52.1182L85.0925 52.1566C85.0924 52.1558 85.0924 52.155 85.0923 52.1543C84.8021 48.382 84.1124 42.7903 83.4963 39.1644L83.496 39.1628C83.4497 38.8852 83.6112 38.695 83.7211 38.6095C83.8233 38.5299 83.94 38.4866 84.0263 38.4604C84.2087 38.4052 84.4499 38.3713 84.7241 38.35C85.2828 38.3067 86.0982 38.3078 87.1433 38.3627C88.4685 38.4157 89.2002 38.4223 89.6038 38.3701C89.3905 38.3302 89.0468 38.3061 88.5034 38.3061C87.5332 38.3061 85.9475 38.1951 85.0217 38.084L85.0161 38.0833C84.3332 37.9934 83.8077 37.8853 83.4381 37.6494C83.0076 37.3747 82.8552 36.9786 82.7708 36.5566L82.7692 36.5487L82.7679 36.5408L82.6223 35.6667L82.5205 35.0559L83.1391 35.0851ZM88.357 57.8974L88.3942 57.3988L96.5853 42.7225L97.0853 42.7191C97.0853 42.7195 97.0853 42.7198 97.0853 42.7202C97.1217 48.1391 96.5435 52.0313 95.1516 54.5243C94.4474 55.7855 93.5294 56.6989 92.3759 57.2605C91.2279 57.8195 89.8858 58.011 88.36 57.8976C88.359 57.8976 88.358 57.8975 88.357 57.8974ZM25.9233 31.9064L21.9915 32.1249L25.9233 31.9064ZM9.60293 42.5153C9.60279 42.5154 9.60552 42.5165 9.61172 42.5181C9.60621 42.5159 9.60306 42.5151 9.60293 42.5153ZM90.4432 31.166C90.1892 31.1898 89.875 31.2171 89.52 31.2467C90.2286 31.202 90.7622 31.1541 91.1596 31.0993C90.9615 31.1141 90.7269 31.1359 90.4494 31.1654L90.4432 31.166ZM56.8158 18.4741L56.8159 18.474L56.8249 18.4832C57.655 19.3339 58.0872 20.3769 58.0819 21.4388C58.0767 22.5009 57.6339 23.5437 56.7842 24.3937L56.7843 24.3937L56.778 24.3998C56.2594 24.9007 55.8604 25.2621 55.3052 25.4294C54.7753 25.589 54.1471 25.5565 53.225 25.4856L53.2219 25.4853C52.3358 25.4114 51.8744 25.4032 51.546 25.4754C51.2608 25.5381 51.0494 25.6678 50.6959 26.0046L50.6959 26.0046L50.6913 26.0089C47.8463 28.6516 43.0602 26.9129 42.6101 23.0445C42.4915 22.1123 42.5975 21.2807 42.9783 20.5241C43.3561 19.7736 43.9818 19.1417 44.8254 18.5661C45.5882 18.0381 46.3466 17.731 47.1414 17.678C47.9368 17.625 48.7191 17.8297 49.5233 18.2418L49.5233 18.2417L49.5324 18.2466C50.0346 18.5171 50.169 18.5439 50.2486 18.5355C50.2802 18.5321 50.3356 18.5187 50.446 18.4525C50.5615 18.3833 50.7042 18.2771 50.9143 18.1127C51.7575 17.4389 52.8606 17.1707 53.9199 17.241C54.9803 17.3114 56.0448 17.7237 56.8158 18.4741Z" fill="url(#paint0_linear_10817_20322)" stroke="#2D3A42"/>
<defs>
<linearGradient id="paint0_linear_10817_20322" x1="0" y1="80" x2="28.5103" y2="-23.9872" gradientUnits="userSpaceOnUse">
<stop stop-color="#242E35"/>
<stop offset="1" stop-color="#242E35" stop-opacity="0"/>
</linearGradient>
</defs>
</svg>
